<mxfile host="Electron" agent="Mozilla/5.0 (Windows NT 10.0; Win64; x64) AppleWebKit/537.36 (KHTML, like Gecko) draw.io/24.7.8 Chrome/128.0.6613.36 Electron/32.0.1 Safari/537.36" version="24.7.8">
  <diagram name="Página-1" id="KkGgWrTcCKknmEP0qxcg">
    <mxGraphModel dx="2427" dy="2136" grid="1" gridSize="10" guides="1" tooltips="1" connect="1" arrows="1" fold="1" page="1" pageScale="1" pageWidth="827" pageHeight="1169" math="0" shadow="0">
      <root>
        <mxCell id="0" />
        <mxCell id="1" parent="0" />
        <mxCell id="who9CqUNRb1ysD8g2-8Y-4" value="" style="edgeStyle=orthogonalEdgeStyle;rounded=0;orthogonalLoop=1;jettySize=auto;html=1;" edge="1" parent="1" source="who9CqUNRb1ysD8g2-8Y-1" target="who9CqUNRb1ysD8g2-8Y-3">
          <mxGeometry relative="1" as="geometry" />
        </mxCell>
        <mxCell id="who9CqUNRb1ysD8g2-8Y-8" value="" style="edgeStyle=orthogonalEdgeStyle;rounded=0;orthogonalLoop=1;jettySize=auto;html=1;" edge="1" parent="1" source="who9CqUNRb1ysD8g2-8Y-1" target="who9CqUNRb1ysD8g2-8Y-7">
          <mxGeometry relative="1" as="geometry">
            <Array as="points">
              <mxPoint x="640" y="350" />
              <mxPoint x="640" y="350" />
            </Array>
          </mxGeometry>
        </mxCell>
        <mxCell id="who9CqUNRb1ysD8g2-8Y-34" style="edgeStyle=orthogonalEdgeStyle;rounded=0;orthogonalLoop=1;jettySize=auto;html=1;" edge="1" parent="1" source="who9CqUNRb1ysD8g2-8Y-1" target="who9CqUNRb1ysD8g2-8Y-33">
          <mxGeometry relative="1" as="geometry">
            <Array as="points">
              <mxPoint x="610" y="175" />
            </Array>
          </mxGeometry>
        </mxCell>
        <mxCell id="who9CqUNRb1ysD8g2-8Y-62" style="edgeStyle=orthogonalEdgeStyle;rounded=0;orthogonalLoop=1;jettySize=auto;html=1;entryX=1;entryY=0.5;entryDx=0;entryDy=0;" edge="1" parent="1" source="who9CqUNRb1ysD8g2-8Y-1" target="who9CqUNRb1ysD8g2-8Y-44">
          <mxGeometry relative="1" as="geometry" />
        </mxCell>
        <mxCell id="who9CqUNRb1ysD8g2-8Y-1" value="USUARIO" style="whiteSpace=wrap;html=1;" vertex="1" parent="1">
          <mxGeometry x="510" y="320" width="120" height="60" as="geometry" />
        </mxCell>
        <mxCell id="who9CqUNRb1ysD8g2-8Y-37" value="" style="edgeStyle=orthogonalEdgeStyle;rounded=0;orthogonalLoop=1;jettySize=auto;html=1;" edge="1" parent="1" source="who9CqUNRb1ysD8g2-8Y-2" target="who9CqUNRb1ysD8g2-8Y-36">
          <mxGeometry relative="1" as="geometry" />
        </mxCell>
        <mxCell id="who9CqUNRb1ysD8g2-8Y-2" value="CUENTA VIRTUAL" style="whiteSpace=wrap;html=1;" vertex="1" parent="1">
          <mxGeometry x="510" y="570" width="120" height="60" as="geometry" />
        </mxCell>
        <mxCell id="who9CqUNRb1ysD8g2-8Y-5" value="" style="edgeStyle=orthogonalEdgeStyle;rounded=0;orthogonalLoop=1;jettySize=auto;html=1;" edge="1" parent="1" source="who9CqUNRb1ysD8g2-8Y-3" target="who9CqUNRb1ysD8g2-8Y-2">
          <mxGeometry relative="1" as="geometry" />
        </mxCell>
        <mxCell id="who9CqUNRb1ysD8g2-8Y-3" value="posee" style="rhombus;whiteSpace=wrap;html=1;" vertex="1" parent="1">
          <mxGeometry x="545" y="425" width="50" height="50" as="geometry" />
        </mxCell>
        <mxCell id="who9CqUNRb1ysD8g2-8Y-12" value="" style="edgeStyle=orthogonalEdgeStyle;rounded=0;orthogonalLoop=1;jettySize=auto;html=1;" edge="1" parent="1" source="who9CqUNRb1ysD8g2-8Y-6" target="who9CqUNRb1ysD8g2-8Y-11">
          <mxGeometry relative="1" as="geometry" />
        </mxCell>
        <mxCell id="who9CqUNRb1ysD8g2-8Y-6" value="INVERSION" style="whiteSpace=wrap;html=1;" vertex="1" parent="1">
          <mxGeometry x="815" y="315" width="120" height="60" as="geometry" />
        </mxCell>
        <mxCell id="who9CqUNRb1ysD8g2-8Y-9" style="edgeStyle=orthogonalEdgeStyle;rounded=0;orthogonalLoop=1;jettySize=auto;html=1;" edge="1" parent="1" source="who9CqUNRb1ysD8g2-8Y-7" target="who9CqUNRb1ysD8g2-8Y-6">
          <mxGeometry relative="1" as="geometry" />
        </mxCell>
        <mxCell id="who9CqUNRb1ysD8g2-8Y-7" value="realiza 1" style="rhombus;whiteSpace=wrap;html=1;" vertex="1" parent="1">
          <mxGeometry x="680" y="325" width="50" height="50" as="geometry" />
        </mxCell>
        <mxCell id="who9CqUNRb1ysD8g2-8Y-13" value="" style="edgeStyle=orthogonalEdgeStyle;rounded=0;orthogonalLoop=1;jettySize=auto;html=1;" edge="1" parent="1" source="who9CqUNRb1ysD8g2-8Y-11" target="who9CqUNRb1ysD8g2-8Y-2">
          <mxGeometry relative="1" as="geometry" />
        </mxCell>
        <mxCell id="who9CqUNRb1ysD8g2-8Y-11" value="corresponde" style="rhombus;whiteSpace=wrap;html=1;" vertex="1" parent="1">
          <mxGeometry x="840" y="595" width="70" height="65" as="geometry" />
        </mxCell>
        <mxCell id="who9CqUNRb1ysD8g2-8Y-14" value="Direccion" style="ellipse;whiteSpace=wrap;html=1;" vertex="1" parent="1">
          <mxGeometry x="519" y="250" width="70" height="50" as="geometry" />
        </mxCell>
        <mxCell id="who9CqUNRb1ysD8g2-8Y-15" value="N° o&lt;div&gt;Calle o&lt;/div&gt;&lt;div&gt;Piso (0,1) o&lt;/div&gt;&lt;div&gt;Depto (0,1) o&lt;/div&gt;" style="text;html=1;align=right;verticalAlign=middle;resizable=0;points=[];autosize=1;strokeColor=none;fillColor=none;" vertex="1" parent="1">
          <mxGeometry x="419" y="230" width="90" height="70" as="geometry" />
        </mxCell>
        <mxCell id="who9CqUNRb1ysD8g2-8Y-16" style="edgeStyle=orthogonalEdgeStyle;rounded=0;orthogonalLoop=1;jettySize=auto;html=1;entryX=0.736;entryY=1.007;entryDx=0;entryDy=0;entryPerimeter=0;" edge="1" parent="1" source="who9CqUNRb1ysD8g2-8Y-1" target="who9CqUNRb1ysD8g2-8Y-14">
          <mxGeometry relative="1" as="geometry" />
        </mxCell>
        <mxCell id="who9CqUNRb1ysD8g2-8Y-17" value="DEBITO" style="whiteSpace=wrap;html=1;" vertex="1" parent="1">
          <mxGeometry x="480" y="-90" width="120" height="60" as="geometry" />
        </mxCell>
        <mxCell id="who9CqUNRb1ysD8g2-8Y-18" value="CREDITO" style="whiteSpace=wrap;html=1;" vertex="1" parent="1">
          <mxGeometry x="305" y="-90" width="120" height="60" as="geometry" />
        </mxCell>
        <mxCell id="who9CqUNRb1ysD8g2-8Y-19" style="edgeStyle=orthogonalEdgeStyle;rounded=0;orthogonalLoop=1;jettySize=auto;html=1;entryX=0.5;entryY=1;entryDx=0;entryDy=0;" edge="1" source="who9CqUNRb1ysD8g2-8Y-22" target="who9CqUNRb1ysD8g2-8Y-17" parent="1">
          <mxGeometry relative="1" as="geometry" />
        </mxCell>
        <mxCell id="who9CqUNRb1ysD8g2-8Y-20" style="edgeStyle=orthogonalEdgeStyle;rounded=0;orthogonalLoop=1;jettySize=auto;html=1;entryX=0.5;entryY=1;entryDx=0;entryDy=0;" edge="1" source="who9CqUNRb1ysD8g2-8Y-22" target="who9CqUNRb1ysD8g2-8Y-18" parent="1">
          <mxGeometry relative="1" as="geometry" />
        </mxCell>
        <mxCell id="who9CqUNRb1ysD8g2-8Y-21" value="" style="edgeStyle=orthogonalEdgeStyle;rounded=0;orthogonalLoop=1;jettySize=auto;html=1;" edge="1" source="who9CqUNRb1ysD8g2-8Y-22" target="who9CqUNRb1ysD8g2-8Y-28" parent="1">
          <mxGeometry relative="1" as="geometry" />
        </mxCell>
        <mxCell id="who9CqUNRb1ysD8g2-8Y-22" value="TARJETA" style="whiteSpace=wrap;html=1;" vertex="1" parent="1">
          <mxGeometry x="400" y="50" width="120" height="60" as="geometry" />
        </mxCell>
        <mxCell id="who9CqUNRb1ysD8g2-8Y-23" value="(T,E)" style="text;html=1;align=center;verticalAlign=middle;resizable=0;points=[];autosize=1;strokeColor=none;fillColor=none;" vertex="1" parent="1">
          <mxGeometry x="465" y="18" width="50" height="30" as="geometry" />
        </mxCell>
        <mxCell id="who9CqUNRb1ysD8g2-8Y-24" value="BANCO" style="whiteSpace=wrap;html=1;" vertex="1" parent="1">
          <mxGeometry x="650" y="50" width="120" height="60" as="geometry" />
        </mxCell>
        <mxCell id="who9CqUNRb1ysD8g2-8Y-25" value="" style="edgeStyle=orthogonalEdgeStyle;rounded=0;orthogonalLoop=1;jettySize=auto;html=1;" edge="1" source="who9CqUNRb1ysD8g2-8Y-26" target="who9CqUNRb1ysD8g2-8Y-30" parent="1">
          <mxGeometry relative="1" as="geometry" />
        </mxCell>
        <mxCell id="who9CqUNRb1ysD8g2-8Y-26" value="ENTIDAD&lt;div&gt;EMISORA&lt;/div&gt;" style="whiteSpace=wrap;html=1;" vertex="1" parent="1">
          <mxGeometry x="170" y="50" width="120" height="60" as="geometry" />
        </mxCell>
        <mxCell id="who9CqUNRb1ysD8g2-8Y-27" value="" style="edgeStyle=orthogonalEdgeStyle;rounded=0;orthogonalLoop=1;jettySize=auto;html=1;" edge="1" source="who9CqUNRb1ysD8g2-8Y-28" target="who9CqUNRb1ysD8g2-8Y-24" parent="1">
          <mxGeometry relative="1" as="geometry" />
        </mxCell>
        <mxCell id="who9CqUNRb1ysD8g2-8Y-28" value="pertenece" style="rhombus;whiteSpace=wrap;html=1;" vertex="1" parent="1">
          <mxGeometry x="560" y="55" width="46.25" height="50" as="geometry" />
        </mxCell>
        <mxCell id="who9CqUNRb1ysD8g2-8Y-29" style="edgeStyle=orthogonalEdgeStyle;rounded=0;orthogonalLoop=1;jettySize=auto;html=1;entryX=0;entryY=0.5;entryDx=0;entryDy=0;" edge="1" source="who9CqUNRb1ysD8g2-8Y-30" target="who9CqUNRb1ysD8g2-8Y-22" parent="1">
          <mxGeometry relative="1" as="geometry" />
        </mxCell>
        <mxCell id="who9CqUNRb1ysD8g2-8Y-30" value="emite" style="rhombus;whiteSpace=wrap;html=1;" vertex="1" parent="1">
          <mxGeometry x="320" y="55" width="50" height="50" as="geometry" />
        </mxCell>
        <mxCell id="who9CqUNRb1ysD8g2-8Y-35" style="edgeStyle=orthogonalEdgeStyle;rounded=0;orthogonalLoop=1;jettySize=auto;html=1;entryX=0.5;entryY=1;entryDx=0;entryDy=0;" edge="1" parent="1" source="who9CqUNRb1ysD8g2-8Y-33" target="who9CqUNRb1ysD8g2-8Y-22">
          <mxGeometry relative="1" as="geometry" />
        </mxCell>
        <mxCell id="who9CqUNRb1ysD8g2-8Y-33" value="registra" style="rhombus;whiteSpace=wrap;html=1;" vertex="1" parent="1">
          <mxGeometry x="435" y="150" width="50" height="50" as="geometry" />
        </mxCell>
        <mxCell id="who9CqUNRb1ysD8g2-8Y-52" style="edgeStyle=orthogonalEdgeStyle;rounded=0;orthogonalLoop=1;jettySize=auto;html=1;entryX=0;entryY=0.5;entryDx=0;entryDy=0;" edge="1" parent="1" source="who9CqUNRb1ysD8g2-8Y-36" target="who9CqUNRb1ysD8g2-8Y-48">
          <mxGeometry relative="1" as="geometry" />
        </mxCell>
        <mxCell id="who9CqUNRb1ysD8g2-8Y-36" value="tiene" style="rhombus;whiteSpace=wrap;html=1;" vertex="1" parent="1">
          <mxGeometry x="-160" y="505" width="50" height="50" as="geometry" />
        </mxCell>
        <mxCell id="who9CqUNRb1ysD8g2-8Y-38" value="INGRESO&lt;div&gt;DE&lt;/div&gt;&lt;div&gt;DINERO&lt;/div&gt;" style="whiteSpace=wrap;html=1;" vertex="1" parent="1">
          <mxGeometry x="110" y="400" width="120" height="60" as="geometry" />
        </mxCell>
        <mxCell id="who9CqUNRb1ysD8g2-8Y-42" style="edgeStyle=orthogonalEdgeStyle;rounded=0;orthogonalLoop=1;jettySize=auto;html=1;entryX=1;entryY=0.25;entryDx=0;entryDy=0;" edge="1" parent="1" source="who9CqUNRb1ysD8g2-8Y-40" target="who9CqUNRb1ysD8g2-8Y-38">
          <mxGeometry relative="1" as="geometry" />
        </mxCell>
        <mxCell id="who9CqUNRb1ysD8g2-8Y-64" style="edgeStyle=orthogonalEdgeStyle;rounded=0;orthogonalLoop=1;jettySize=auto;html=1;entryX=0;entryY=0.75;entryDx=0;entryDy=0;" edge="1" parent="1" source="who9CqUNRb1ysD8g2-8Y-40" target="who9CqUNRb1ysD8g2-8Y-1">
          <mxGeometry relative="1" as="geometry" />
        </mxCell>
        <mxCell id="who9CqUNRb1ysD8g2-8Y-40" value="realiza&lt;div&gt;2&lt;/div&gt;" style="rhombus;whiteSpace=wrap;html=1;" vertex="1" parent="1">
          <mxGeometry x="310" y="405" width="50" height="50" as="geometry" />
        </mxCell>
        <mxCell id="who9CqUNRb1ysD8g2-8Y-63" value="" style="edgeStyle=orthogonalEdgeStyle;rounded=0;orthogonalLoop=1;jettySize=auto;html=1;" edge="1" parent="1" source="who9CqUNRb1ysD8g2-8Y-44" target="who9CqUNRb1ysD8g2-8Y-47">
          <mxGeometry relative="1" as="geometry" />
        </mxCell>
        <mxCell id="who9CqUNRb1ysD8g2-8Y-44" value="realiza&lt;div&gt;3&lt;/div&gt;" style="rhombus;whiteSpace=wrap;html=1;" vertex="1" parent="1">
          <mxGeometry x="305" y="305" width="50" height="50" as="geometry" />
        </mxCell>
        <mxCell id="who9CqUNRb1ysD8g2-8Y-80" style="edgeStyle=orthogonalEdgeStyle;rounded=0;orthogonalLoop=1;jettySize=auto;html=1;entryX=0.5;entryY=1;entryDx=0;entryDy=0;" edge="1" parent="1" source="who9CqUNRb1ysD8g2-8Y-47" target="who9CqUNRb1ysD8g2-8Y-76">
          <mxGeometry relative="1" as="geometry">
            <Array as="points">
              <mxPoint x="175" y="290" />
              <mxPoint x="175" y="290" />
            </Array>
          </mxGeometry>
        </mxCell>
        <mxCell id="who9CqUNRb1ysD8g2-8Y-47" value="EGRESO&lt;div&gt;DE&lt;/div&gt;&lt;div&gt;DINERO&lt;/div&gt;" style="whiteSpace=wrap;html=1;" vertex="1" parent="1">
          <mxGeometry x="110" y="300" width="120" height="60" as="geometry" />
        </mxCell>
        <mxCell id="who9CqUNRb1ysD8g2-8Y-49" style="edgeStyle=orthogonalEdgeStyle;rounded=0;orthogonalLoop=1;jettySize=auto;html=1;entryX=0;entryY=0.5;entryDx=0;entryDy=0;" edge="1" parent="1" source="who9CqUNRb1ysD8g2-8Y-48" target="who9CqUNRb1ysD8g2-8Y-38">
          <mxGeometry relative="1" as="geometry">
            <Array as="points">
              <mxPoint x="55" y="380" />
              <mxPoint x="55" y="430" />
            </Array>
          </mxGeometry>
        </mxCell>
        <mxCell id="who9CqUNRb1ysD8g2-8Y-50" style="edgeStyle=orthogonalEdgeStyle;rounded=0;orthogonalLoop=1;jettySize=auto;html=1;entryX=0;entryY=0.5;entryDx=0;entryDy=0;" edge="1" parent="1" source="who9CqUNRb1ysD8g2-8Y-48" target="who9CqUNRb1ysD8g2-8Y-47">
          <mxGeometry relative="1" as="geometry">
            <Array as="points">
              <mxPoint x="55" y="340" />
              <mxPoint x="55" y="330" />
            </Array>
          </mxGeometry>
        </mxCell>
        <mxCell id="who9CqUNRb1ysD8g2-8Y-48" value="MOVIMIENTOS" style="whiteSpace=wrap;html=1;" vertex="1" parent="1">
          <mxGeometry x="-120" y="330" width="120" height="60" as="geometry" />
        </mxCell>
        <mxCell id="who9CqUNRb1ysD8g2-8Y-65" value="" style="edgeStyle=orthogonalEdgeStyle;rounded=0;orthogonalLoop=1;jettySize=auto;html=1;" edge="1" parent="1" source="who9CqUNRb1ysD8g2-8Y-66" target="who9CqUNRb1ysD8g2-8Y-68">
          <mxGeometry relative="1" as="geometry" />
        </mxCell>
        <mxCell id="who9CqUNRb1ysD8g2-8Y-72" style="edgeStyle=orthogonalEdgeStyle;rounded=0;orthogonalLoop=1;jettySize=auto;html=1;entryX=0;entryY=0.25;entryDx=0;entryDy=0;" edge="1" parent="1" source="who9CqUNRb1ysD8g2-8Y-66" target="who9CqUNRb1ysD8g2-8Y-1">
          <mxGeometry relative="1" as="geometry">
            <Array as="points">
              <mxPoint x="400" y="310" />
              <mxPoint x="480" y="310" />
              <mxPoint x="480" y="335" />
            </Array>
          </mxGeometry>
        </mxCell>
        <mxCell id="who9CqUNRb1ysD8g2-8Y-66" value="realiza&amp;nbsp;&lt;div&gt;4&lt;/div&gt;" style="rhombus;whiteSpace=wrap;html=1;" vertex="1" parent="1">
          <mxGeometry x="375" y="207.5" width="50" height="50" as="geometry" />
        </mxCell>
        <mxCell id="who9CqUNRb1ysD8g2-8Y-67" value="" style="edgeStyle=orthogonalEdgeStyle;rounded=0;orthogonalLoop=1;jettySize=auto;html=1;" edge="1" parent="1" source="who9CqUNRb1ysD8g2-8Y-68" target="who9CqUNRb1ysD8g2-8Y-70">
          <mxGeometry relative="1" as="geometry" />
        </mxCell>
        <mxCell id="who9CqUNRb1ysD8g2-8Y-78" style="edgeStyle=orthogonalEdgeStyle;rounded=0;orthogonalLoop=1;jettySize=auto;html=1;exitX=0;exitY=0.75;exitDx=0;exitDy=0;" edge="1" parent="1" source="who9CqUNRb1ysD8g2-8Y-68" target="who9CqUNRb1ysD8g2-8Y-76">
          <mxGeometry relative="1" as="geometry">
            <Array as="points">
              <mxPoint x="175" y="215" />
            </Array>
          </mxGeometry>
        </mxCell>
        <mxCell id="who9CqUNRb1ysD8g2-8Y-68" value="COMPRA" style="whiteSpace=wrap;html=1;" vertex="1" parent="1">
          <mxGeometry x="200" y="170" width="120" height="60" as="geometry" />
        </mxCell>
        <mxCell id="who9CqUNRb1ysD8g2-8Y-69" value="" style="edgeStyle=orthogonalEdgeStyle;rounded=0;orthogonalLoop=1;jettySize=auto;html=1;" edge="1" parent="1" source="who9CqUNRb1ysD8g2-8Y-70" target="who9CqUNRb1ysD8g2-8Y-71">
          <mxGeometry relative="1" as="geometry" />
        </mxCell>
        <mxCell id="who9CqUNRb1ysD8g2-8Y-70" value="corresponde" style="rhombus;whiteSpace=wrap;html=1;" vertex="1" parent="1">
          <mxGeometry x="-30" y="167.5" width="60" height="65" as="geometry" />
        </mxCell>
        <mxCell id="who9CqUNRb1ysD8g2-8Y-71" value="PRODUCTO&lt;div&gt;TECH&lt;/div&gt;" style="whiteSpace=wrap;html=1;" vertex="1" parent="1">
          <mxGeometry x="-60" y="50" width="120" height="60" as="geometry" />
        </mxCell>
        <mxCell id="who9CqUNRb1ysD8g2-8Y-75" style="edgeStyle=orthogonalEdgeStyle;rounded=0;orthogonalLoop=1;jettySize=auto;html=1;entryX=0.5;entryY=0;entryDx=0;entryDy=0;" edge="1" parent="1" source="who9CqUNRb1ysD8g2-8Y-73" target="who9CqUNRb1ysD8g2-8Y-68">
          <mxGeometry relative="1" as="geometry" />
        </mxCell>
        <mxCell id="who9CqUNRb1ysD8g2-8Y-73" value="se&lt;div&gt;abona&lt;/div&gt;" style="rhombus;whiteSpace=wrap;html=1;" vertex="1" parent="1">
          <mxGeometry x="340" y="120" width="50" height="50" as="geometry" />
        </mxCell>
        <mxCell id="who9CqUNRb1ysD8g2-8Y-74" style="edgeStyle=orthogonalEdgeStyle;rounded=0;orthogonalLoop=1;jettySize=auto;html=1;entryX=0.146;entryY=1.039;entryDx=0;entryDy=0;entryPerimeter=0;" edge="1" parent="1" source="who9CqUNRb1ysD8g2-8Y-73" target="who9CqUNRb1ysD8g2-8Y-22">
          <mxGeometry relative="1" as="geometry" />
        </mxCell>
        <mxCell id="who9CqUNRb1ysD8g2-8Y-76" value="se&lt;div&gt;abona&lt;/div&gt;&lt;div&gt;2&lt;/div&gt;" style="rhombus;whiteSpace=wrap;html=1;" vertex="1" parent="1">
          <mxGeometry x="150" y="230" width="50" height="50" as="geometry" />
        </mxCell>
      </root>
    </mxGraphModel>
  </diagram>
</mxfile>
